<?xml version="1.0" encoding="UTF-8"?> <svg xmlns="http://www.w3.org/2000/svg" width="178" height="178" viewBox="-140 0 178 34" fill="none"><path d="M41.0299 24V7.06189H46.4742L50.5878 16.7408H51.1927L55.3063 7.06189H60.7507V24H57.1211V13.2322L57.363 11.0544H57.1211L53.2495 20.1284H48.531L44.6595 11.0544H44.4175L44.6595 13.2322V24H41.0299ZM64.2697 24L68.7462 7.06189H76.3683L80.8448 24H77.0942L76.1263 20.2494H68.9881L68.0202 24H64.2697ZM69.835 16.8618H75.2794L73.5856 10.4495H71.5288L69.835 16.8618ZM82.1823 10.4495V7.06189H96.7007V10.4495H91.2563V24H87.6267V10.4495H82.1823ZM102.341 21.9432C100.599 20.2333 99.7282 18.0959 99.7282 15.5309C99.7282 12.966 100.599 10.8367 102.341 9.14286C104.1 7.43292 106.334 6.57794 109.044 6.57794C112.093 6.57794 114.432 7.65069 116.061 9.79619C116.803 10.7479 117.328 11.8126 117.634 12.9902H113.884C113.674 12.4418 113.351 11.9417 112.916 11.49C111.899 10.4737 110.609 9.96557 109.044 9.96557C107.463 9.96557 106.157 10.4898 105.124 11.5384C104.108 12.5708 103.6 13.9017 103.6 15.5309C103.6 17.2248 104.092 18.5798 105.076 19.5961C106.076 20.5962 107.399 21.0963 109.044 21.0963C110.69 21.0963 112.012 20.5317 113.012 19.4025C113.464 18.8702 113.795 18.3056 114.005 17.7087H117.755C117.384 18.9831 116.828 20.1123 116.086 21.0963C114.343 23.3547 111.996 24.4839 109.044 24.4839C106.334 24.4839 104.1 23.637 102.341 21.9432ZM121.979 24V7.06189H125.609V13.7161H133.11V7.06189H136.74V24H133.11V17.1038H125.609V24H121.979ZM141.706 17.3457V7.06189H145.335V17.3457C145.335 18.5072 145.658 19.4267 146.303 20.1042C146.965 20.7656 147.852 21.0963 148.965 21.0963C150.078 21.0963 150.957 20.7656 151.602 20.1042C152.264 19.4267 152.595 18.5072 152.595 17.3457V7.06189H156.224V17.3457C156.224 19.5235 155.571 21.2576 154.264 22.5482C152.957 23.8387 151.191 24.4839 148.965 24.4839C146.739 24.4839 144.972 23.8387 143.666 22.5482C142.359 21.2576 141.706 19.5235 141.706 17.3457ZM161.178 24V7.06189H169.042C171.059 7.06189 172.688 7.63456 173.93 8.7799C175.188 9.90911 175.817 11.3125 175.817 12.9902C175.817 14.6679 175.188 16.0794 173.93 17.2248C172.688 18.354 171.059 18.9186 169.042 18.9186H164.808V24H161.178ZM164.808 15.5309H168.921C169.921 15.5309 170.696 15.297 171.244 14.8292C171.792 14.3614 172.067 13.7484 172.067 12.9902C172.067 12.232 171.792 11.619 171.244 11.1512C170.696 10.6834 169.921 10.4495 168.921 10.4495H164.808V15.5309Z" fill="white"></path><path fill-rule="evenodd" clip-rule="evenodd" d="M6.27663 1.47008C5.65409 1.56585 5.0367 1.7328 4.50056 1.95035C4.07207 2.12426 3.75598 2.2699 3.72638 2.30711C3.71385 2.32286 3.67287 2.34978 3.6353 2.36699C3.44612 2.45343 2.67963 2.9959 2.46878 3.19255C2.14663 3.49302 1.95372 3.68256 1.85923 3.79163C1.51385 4.19019 0.997791 4.91232 0.913405 5.11516C0.894415 5.16079 0.818545 5.31085 0.744815 5.4486C0.507733 5.89148 0.309405 6.47308 0.143093 7.21319L0.0228212 7.74838L0.00592572 10.4353C-0.0214439 14.7807 0.0515569 24.778 0.111123 24.8531C0.13904 24.8882 0.172967 25.0297 0.186447 25.1675C0.21031 25.4109 0.357496 25.9292 0.448166 26.0891C0.472849 26.1325 0.493342 26.2043 0.493706 26.2484C0.494435 26.3377 0.826377 27.0158 1.05271 27.3904C1.44276 28.0359 2.09526 28.794 2.61064 29.2004C2.73588 29.2992 2.84859 29.3921 2.86111 29.407C2.91977 29.4765 3.39662 29.7869 3.67123 29.9342C4.20655 30.2215 4.28998 30.2617 4.56887 30.3663C4.71915 30.4227 4.8626 30.4833 4.88765 30.5009C4.9127 30.5186 5.01516 30.5467 5.11535 30.5632C5.21554 30.5798 5.3385 30.6114 5.38859 30.6335C5.51875 30.6909 6.19433 30.819 6.59541 30.8622C6.78326 30.8825 9.15531 30.9005 11.8667 30.9023L16.7964 30.9056V21.1827V11.4599H16.0905C15.4304 11.4599 15.3847 11.4544 15.3847 11.3744C15.3847 11.3274 15.4154 11.2634 15.453 11.2322C15.4905 11.201 15.5217 11.1524 15.5221 11.1242C15.5226 11.0959 15.5882 10.9704 15.6678 10.8451C15.7474 10.7199 15.8458 10.5559 15.8864 10.4808C15.927 10.4057 16.0083 10.2622 16.067 10.162C16.1257 10.0618 16.2043 9.91837 16.2418 9.84323C16.2793 9.76809 16.3447 9.65538 16.3872 9.59276C16.4298 9.53014 16.5165 9.38669 16.5799 9.27398C16.6433 9.16127 16.8034 8.88461 16.9355 8.65919C17.0677 8.43376 17.2215 8.16735 17.2774 8.06716C17.3889 7.86711 18.1266 6.58816 18.3807 6.15448C18.7531 5.51869 19.171 4.78718 19.363 4.43502C19.5902 4.0181 19.6742 3.89559 19.722 3.91149C19.7475 3.92 19.8347 4.04906 19.9157 4.19825C20.0844 4.50902 20.2341 4.77361 20.3525 4.97043C20.3978 5.04557 20.4636 5.15829 20.4989 5.2209C20.5341 5.28352 20.6347 5.45771 20.7223 5.608C20.8099 5.75828 21.0385 6.15789 21.2302 6.49603C21.422 6.83416 21.5984 7.14156 21.6222 7.17913C21.6621 7.24207 21.9167 7.67119 22.0793 7.94976C22.204 8.16321 23.0564 9.64235 23.1529 9.81267C23.205 9.90462 23.2898 10.0516 23.3413 10.1392C23.9269 11.1363 24.071 11.3967 24.053 11.4258C24.0414 11.4445 23.7257 11.4599 23.3515 11.4599H22.6711V21.16V30.86L22.8646 30.859C23.0784 30.8578 24.0625 30.6678 24.1122 30.6181C24.1295 30.6009 24.192 30.5868 24.2512 30.5868C24.3425 30.5868 24.656 30.4752 25.0164 30.3144C25.0665 30.292 25.1563 30.2599 25.2159 30.2431C25.2755 30.2263 25.4395 30.1431 25.5802 30.0582C25.721 29.9734 25.8618 29.9039 25.8931 29.9038C25.9244 29.9037 25.95 29.8857 25.95 29.8636C25.95 29.8416 26.0115 29.7982 26.0866 29.7671C26.1617 29.7359 26.2232 29.6957 26.2232 29.6778C26.2232 29.6598 26.276 29.621 26.3405 29.5916C26.5104 29.5142 27.1571 28.9623 27.4815 28.6177C27.8132 28.2654 28.1594 27.8249 28.344 27.5202C28.4174 27.399 28.5131 27.2453 28.5567 27.1786C28.6002 27.112 28.6484 27.0267 28.6638 26.9891C28.6792 26.9515 28.7618 26.7726 28.8474 26.5914C28.9331 26.4103 29.0158 26.1951 29.0313 26.1133C29.0468 26.0314 29.0744 25.944 29.0927 25.9189C29.1109 25.8939 29.1517 25.7607 29.1833 25.6229C29.2149 25.4851 29.2582 25.3503 29.2795 25.3232C29.3008 25.2962 29.3317 25.0913 29.348 24.8678C29.3645 24.6444 29.3934 24.4411 29.4123 24.4161C29.4311 24.391 29.4612 20.815 29.4791 16.4693C29.5038 10.4947 29.4985 8.45152 29.4577 8.08993C29.3825 7.42359 29.2539 6.79236 29.1131 6.39816C29.0473 6.21404 28.9774 6.01216 28.9579 5.94955C28.8977 5.75637 28.5266 5.03036 28.3426 4.74574C27.9576 4.15007 27.3461 3.46082 26.8428 3.05524C26.142 2.49036 25.1906 1.96861 24.5155 1.7788C24.3902 1.74359 24.0931 1.6588 23.8551 1.59035L23.4225 1.46589L14.9065 1.45924C10.2227 1.45555 6.33924 1.46042 6.27663 1.47008ZM11.1713 16.101C11.19 21.1333 11.1898 25.2757 11.1708 25.3064C11.1053 25.4123 9.7625 25.2553 9.57829 25.1201C9.55324 25.1017 9.44167 25.0717 9.33032 25.0533C9.08864 25.0134 8.4473 24.7168 8.09823 24.4835C7.96047 24.3914 7.82426 24.3078 7.79553 24.2978C7.60672 24.2316 6.51594 23.1574 6.476 22.9984C6.46111 22.939 6.43356 22.8905 6.41475 22.8905C6.38009 22.8905 6.04892 22.4137 6.04892 22.3638C6.04892 22.3488 5.9772 22.2142 5.88953 22.0646C5.80187 21.915 5.73014 21.761 5.73014 21.7223C5.73014 21.6836 5.70122 21.5873 5.66584 21.5084C5.50941 21.1593 5.40007 20.7394 5.35571 20.3175C5.30963 19.8793 5.30571 7.06569 5.35161 6.98559C5.36241 6.96678 6.66854 6.95143 8.25425 6.95143H11.1373L11.1713 16.101Z" fill="url(#paint0_linear_34_36)"></path><defs><linearGradient id="paint0_linear_34_36" x1="3.07229" y1="3.5062" x2="29.5355" y2="29.8862" gradientUnits="userSpaceOnUse"><stop stop-color="#FF5A44"></stop><stop offset="1" stop-color="#D63A8D"></stop></linearGradient></defs></svg> 